<svg width="40" height="40" viewBox="0 0 40 40" fill="none" xmlns="http://www.w3.org/2000/svg">
<path d="M19.9981 16.4083C18.0106 16.4083 16.4065 18.0124 16.4065 20C16.4065 21.9876 18.0106 23.5917 19.9981 23.5917C21.9857 23.5917 23.5897 21.9876 23.5897 20C23.5897 18.0124 21.9857 16.4083 19.9981 16.4083ZM19.9981 22.3343C18.7128 22.3343 17.6638 21.2854 17.6638 20C17.6638 18.7146 18.7128 17.6657 19.9981 17.6657C21.2835 17.6657 22.3324 18.7146 22.3324 20C22.3324 21.2854 21.2835 22.3343 19.9981 22.3343ZM23.7368 15.4242C23.2728 15.4242 22.898 15.7989 22.898 16.263C22.898 16.727 23.2728 17.1018 23.7368 17.1018C24.2009 17.1018 24.5756 16.7288 24.5756 16.263C24.5758 16.1528 24.5542 16.0436 24.5121 15.9418C24.47 15.84 24.4082 15.7475 24.3303 15.6695C24.2523 15.5916 24.1598 15.5298 24.058 15.4877C23.9562 15.4456 23.847 15.424 23.7368 15.4242ZM26.9992 20C26.9992 19.0333 27.008 18.0754 26.9537 17.1105C26.8994 15.9898 26.6437 14.9951 25.8242 14.1756C25.0029 13.3543 24.01 13.1003 22.8893 13.0461C21.9226 12.9918 20.9648 13.0005 19.9999 13.0005C19.0332 13.0005 18.0754 12.9918 17.1105 13.0461C15.9897 13.1003 14.9951 13.356 14.1755 14.1756C13.3543 14.9969 13.1003 15.9898 13.0461 17.1105C12.9918 18.0772 13.0005 19.0351 13.0005 20C13.0005 20.9649 12.9918 21.9246 13.0461 22.8895C13.1003 24.0102 13.356 25.0049 14.1755 25.8244C14.9968 26.6457 15.9897 26.8997 17.1105 26.9539C18.0771 27.0082 19.035 26.9995 19.9999 26.9995C20.9665 26.9995 21.9244 27.0082 22.8893 26.9539C24.01 26.8997 25.0047 26.644 25.8242 25.8244C26.6455 25.0031 26.8994 24.0102 26.9537 22.8895C27.0097 21.9246 26.9992 20.9667 26.9992 20ZM25.4582 24.1293C25.3304 24.448 25.1763 24.6862 24.9294 24.9313C24.6824 25.1782 24.446 25.3324 24.1273 25.4602C23.2062 25.8262 21.019 25.7439 19.9981 25.7439C18.9772 25.7439 16.7883 25.8262 15.8672 25.4619C15.5484 25.3341 15.3103 25.18 15.0651 24.9331C14.8182 24.6862 14.6641 24.4498 14.5363 24.131C14.172 23.2082 14.2543 21.0209 14.2543 20C14.2543 18.9791 14.172 16.7901 14.5363 15.869C14.6641 15.5502 14.8182 15.3121 15.0651 15.0669C15.312 14.8218 15.5484 14.6659 15.8672 14.5381C16.7883 14.1738 18.9772 14.2561 19.9981 14.2561C21.019 14.2561 23.208 14.1738 24.1291 14.5381C24.4478 14.6659 24.6859 14.82 24.9311 15.0669C25.178 15.3138 25.3321 15.5502 25.46 15.869C25.8242 16.7901 25.7419 18.9791 25.7419 20C25.7419 21.0209 25.8242 23.2082 25.4582 24.1293Z" fill="white"/>
<circle cx="20" cy="20" r="15.25" stroke="white" stroke-width="1.5"/>
</svg>
