<svg width="40" height="40" viewBox="0 0 40 40" fill="none" xmlns="http://www.w3.org/2000/svg">
<path fill-rule="evenodd" clip-rule="evenodd" d="M18.4574 18.1814H20.6858V19.2914C21.0068 18.653 21.83 18.0794 23.0666 18.0794C25.4372 18.0794 26 19.3502 26 21.6818V26H23.6V22.2128C23.6 20.885 23.279 20.1362 22.4618 20.1362C21.3284 20.1362 20.8574 20.9432 20.8574 22.2122V26H18.4574V18.1814ZM14.342 25.898H16.742V18.0794H14.342V25.898ZM17.0858 15.53C17.0859 15.7312 17.046 15.9303 16.9684 16.116C16.8909 16.3016 16.7772 16.4699 16.634 16.6112C16.3438 16.8996 15.9511 17.061 15.542 17.06C15.1336 17.0597 14.7418 16.8987 14.4512 16.6118C14.3085 16.47 14.1952 16.3015 14.1178 16.1159C14.0404 15.9302 14.0003 15.7311 14 15.53C14 15.1238 14.162 14.735 14.4518 14.4482C14.7421 14.1609 15.1341 13.9998 15.5426 14C15.9518 14 16.3442 14.1614 16.634 14.4482C16.9232 14.735 17.0858 15.1238 17.0858 15.53Z" fill="white"/>
<circle cx="20" cy="20" r="15.25" stroke="white" stroke-width="1.5"/>
</svg>
