<svg width="192" height="48" viewBox="0 0 192 48" fill="none" xmlns="http://www.w3.org/2000/svg">
<path d="M61.3286 8.32246H70.165L82.6632 30.5397H83.1236L82.6632 26.7248V8.30078H89.4823V39.73H80.624L68.1368 17.5236H67.6873L68.1368 21.3385V39.7625H61.3286V8.32246Z" fill="#4A43CB"/>
<path d="M104.414 40.4128C102.68 40.4269 100.96 40.1066 99.3494 39.4699C97.8455 38.8622 96.4752 37.9715 95.315 36.8472C94.1779 35.7499 93.2756 34.4379 92.6618 32.989C92.0321 31.4876 91.708 29.8782 91.708 28.2529C91.708 26.6276 92.0321 25.0182 92.6618 23.5169C93.2727 22.0632 94.1753 20.7471 95.315 19.6478C96.4791 18.539 97.849 17.6632 99.3494 17.0685C100.96 16.4317 102.68 16.1115 104.414 16.1256C106.142 16.1095 107.855 16.4299 109.458 17.0685C110.952 17.6687 112.317 18.544 113.481 19.6478C114.641 20.7627 115.569 22.092 116.211 23.5602C116.855 25.058 117.187 26.6688 117.187 28.2963C117.187 29.9238 116.855 31.5346 116.211 33.0323C115.556 34.4648 114.629 35.7599 113.481 36.8472C112.317 37.951 110.952 38.8263 109.458 39.4266C107.859 40.0799 106.145 40.4151 104.414 40.4128ZM104.414 34.9939C105.238 35.0015 106.054 34.8313 106.804 34.4954C107.537 34.1819 108.2 33.729 108.756 33.1624C109.338 32.5348 109.785 31.7976 110.072 30.9948C110.7 29.2085 110.7 27.2648 110.072 25.4785C109.779 24.695 109.331 23.9767 108.756 23.3651C108.203 22.7869 107.54 22.3227 106.804 21.9996C106.054 21.6707 105.241 21.5009 104.42 21.5009C103.599 21.5009 102.786 21.6707 102.035 21.9996C101.299 22.3202 100.635 22.7846 100.084 23.3651C99.5085 23.9767 99.0613 24.695 98.7684 25.4785C98.1252 27.2623 98.1252 29.211 98.7684 30.9948C99.0547 31.7976 99.5022 32.5348 100.084 33.1624C100.635 33.7429 101.299 34.2074 102.035 34.5279C102.782 34.863 103.594 35.0331 104.414 35.0265V34.9939Z" fill="#4A43CB"/>
<path d="M153.366 40.4133C151.674 40.4254 149.997 40.1048 148.432 39.4704C146.951 38.8566 145.603 37.9661 144.463 36.8477C142.158 34.5658 140.864 31.4728 140.864 28.248C140.864 25.0233 142.158 21.9303 144.463 19.6484C145.607 18.5455 146.954 17.6699 148.432 17.069C149.997 16.4346 151.674 16.1141 153.366 16.1261C155.069 16.1035 156.759 16.4243 158.332 17.069C159.788 17.6696 161.106 18.5553 162.206 19.6729C163.307 20.7904 164.167 22.1166 164.735 23.5716C165.334 25.0722 165.635 26.6727 165.623 28.286V29.6298H147.456C147.579 30.3499 147.82 31.0455 148.169 31.689C148.502 32.3387 148.947 32.9256 149.485 33.423C150.012 33.9168 150.625 34.3132 151.294 34.5935C151.953 34.8818 152.666 35.0296 153.388 35.027C154.25 35.0586 155.109 34.9109 155.909 34.5935C156.481 34.3544 157.022 34.0488 157.521 33.6831C157.967 33.3015 158.338 32.8423 158.617 32.3284H165.425C164.952 33.8038 164.181 35.1692 163.16 36.3426C162.139 37.5159 160.888 38.473 159.483 39.1562C158.622 39.5775 157.713 39.8941 156.775 40.099C155.653 40.3246 154.51 40.43 153.366 40.4133ZM158.847 25.8258C158.724 25.2573 158.51 24.7121 158.211 24.211C157.904 23.6977 157.511 23.2396 157.049 22.8563C156.556 22.4622 156.005 22.1443 155.416 21.9134C154.462 21.5668 153.435 21.4695 152.432 21.6309C151.429 21.7923 150.486 22.2069 149.693 22.8346C148.753 23.6192 148.067 24.6593 147.72 25.8258H158.847Z" fill="#4A43CB"/>
<path d="M178.099 40.4106C176.682 40.4258 175.278 40.1439 173.98 39.5834C172.682 39.023 171.519 38.1968 170.567 37.1593C169.555 36.0502 168.777 34.7535 168.276 33.3445C167.695 31.7348 167.409 30.0356 167.432 28.3266C167.408 26.6141 167.694 24.9112 168.276 23.298C168.779 21.8966 169.558 20.6075 170.567 19.5048C171.508 18.4704 172.658 17.6433 173.944 17.0771C175.253 16.5065 176.668 16.2147 178.099 16.221C179.222 16.1891 180.341 16.3807 181.388 16.7845C182.183 17.1078 182.938 17.5225 183.635 18.02C184.311 18.5334 184.909 19.1391 185.411 19.8191H185.642V8.32031H192V39.7495H185.642V36.845H185.411C184.909 37.525 184.311 38.1307 183.635 38.6441C182.943 39.1498 182.188 39.5651 181.388 39.8796C180.338 40.2723 179.22 40.4529 178.099 40.4106ZM179.688 34.9918C180.482 35.0204 181.273 34.8783 182.005 34.5751C182.738 34.272 183.395 33.8151 183.931 33.2361C185.118 31.8543 185.716 30.0706 185.598 28.2616C185.715 26.4494 185.118 24.6626 183.931 23.2763C183.395 22.6973 182.738 22.2404 182.005 21.9373C181.273 21.6341 180.482 21.4919 179.688 21.5206C178.928 21.5074 178.173 21.6576 177.476 21.9607C176.78 22.2638 176.158 22.7127 175.654 23.2763C174.482 24.6691 173.897 26.4541 174.02 28.2616C173.898 30.0657 174.483 31.8471 175.654 33.2361C176.155 33.8056 176.775 34.2606 177.472 34.5694C178.169 34.8782 178.925 35.0334 179.688 35.0243V34.9918Z" fill="#4A43CB"/>
<path d="M134.651 16.3203L131.231 32.0566C130.504 31.963 129.771 31.9195 129.038 31.9265C128.287 31.9191 127.536 31.9625 126.791 32.0566L123.381 16.3203H116.617L122.877 39.6971L123.699 39.2962C125.3 38.633 127.017 38.2833 128.753 38.2666C130.479 38.2178 132.197 38.5088 133.807 39.1227C134.242 39.29 134.666 39.4818 135.079 39.6971L141.427 16.3203H134.651Z" fill="#4A43CB"/>
<path d="M41.8578 0H6.69857C2.99905 0 0 2.96469 0 6.62181V41.3782C0 45.0353 2.99905 48 6.69857 48H41.8578C45.5573 48 48.5564 45.0353 48.5564 41.3782V6.62181C48.5564 2.96469 45.5573 0 41.8578 0Z" fill="#20D9E2"/>
<path d="M30.1161 11.9761L26.6956 28.7961C25.9688 28.6992 25.2362 28.6522 24.5029 28.6552C23.7696 28.6527 23.037 28.6998 22.3102 28.7961L18.8239 11.9761H12.0596L18.3196 35.3529L19.1528 34.9519C20.7467 34.2702 22.4596 33.902 24.1959 33.8681C25.9215 33.8182 27.6397 34.1093 29.25 34.7243C29.6902 34.8869 30.1187 35.0789 30.5327 35.2987L36.7927 11.9219L30.1161 11.9761Z" fill="#4A43CB"/>
</svg>
