<svg width="40" height="40" viewBox="0 0 40 40" fill="none" xmlns="http://www.w3.org/2000/svg">
<path d="M28 15.4255C27.4484 15.6598 26.8481 15.8284 26.2298 15.8941C26.8717 15.5185 27.3525 14.9252 27.5818 14.2255C26.9794 14.5783 26.3195 14.8258 25.6313 14.9568C25.3437 14.654 24.9958 14.4128 24.6094 14.2482C24.2229 14.0836 23.8062 13.9991 23.3852 14C21.6816 14 20.3116 15.3598 20.3116 17.0284C20.3116 17.2627 20.3405 17.497 20.3873 17.7225C17.8366 17.5911 15.5616 16.3911 14.0492 14.5539C13.7736 15.0174 13.6292 15.5451 13.6309 16.0823C13.6309 17.1331 14.1735 18.0598 15.001 18.6047C14.5133 18.5858 14.0372 18.4538 13.6111 18.2195V18.2568C13.6111 19.7284 14.6675 20.9479 16.0754 21.2284C15.811 21.296 15.5391 21.3306 15.266 21.3314C15.0659 21.3314 14.8766 21.3118 14.6855 21.2852C15.0749 22.4852 16.2087 23.3568 17.5589 23.3852C16.5026 24.2 15.1794 24.6793 13.7427 24.6793C13.4849 24.6793 13.247 24.6704 13 24.642C14.3628 25.503 15.9798 26 17.7212 26C23.3744 26 26.4677 21.3882 26.4677 17.3852C26.4677 17.2539 26.4677 17.1225 26.4587 16.9911C27.0572 16.5598 27.5818 16.0254 28 15.4255Z" fill="white"/>
<circle cx="20" cy="20" r="15.25" stroke="white" stroke-width="1.5"/>
</svg>
