<svg width="40" height="40" viewBox="0 0 40 40" fill="none" xmlns="http://www.w3.org/2000/svg">
<path d="M25.7287 16.5621C25.6547 16.2596 25.5096 15.9838 25.3079 15.7622C25.1063 15.5406 24.8551 15.381 24.5796 15.2994C23.5654 15 19.5 15 19.5 15C19.5 15 15.4346 15 14.4204 15.2978C14.1448 15.3791 13.8935 15.5386 13.6918 15.7603C13.4901 15.9819 13.3451 16.2579 13.2713 16.5605C13 17.6752 13 20 13 20C13 20 13 22.3248 13.2713 23.4379C13.4208 24.0525 13.8618 24.5366 14.4204 24.7006C15.4346 25 19.5 25 19.5 25C19.5 25 23.5654 25 24.5796 24.7006C25.1396 24.5366 25.5792 24.0525 25.7287 23.4379C26 22.3248 26 20 26 20C26 20 26 17.6752 25.7287 16.5621ZM18.2087 22.1338V17.8662L21.5748 19.9841L18.2087 22.1338Z" fill="white"/>
<circle cx="20" cy="20" r="15.25" stroke="white" stroke-width="1.5"/>
</svg>
