<svg width="40" height="40" viewBox="0 0 40 40" fill="none" xmlns="http://www.w3.org/2000/svg">
<g clip-path="url(#clip0_1999_8597)">
<path fill-rule="evenodd" clip-rule="evenodd" d="M21.1786 26.1766C20.866 26.4891 20.4422 26.6646 20.0002 26.6646C19.5583 26.6646 19.1345 26.4891 18.8219 26.1766L9.39358 16.7483C9.2344 16.5945 9.10743 16.4106 9.02008 16.2073C8.93273 16.004 8.88675 15.7853 8.88483 15.564C8.88291 15.3427 8.92508 15.1232 9.00888 14.9184C9.09268 14.7135 9.21643 14.5275 9.37292 14.371C9.52941 14.2145 9.7155 14.0907 9.92032 14.0069C10.1251 13.9231 10.3446 13.881 10.5659 13.8829C10.7872 13.8848 11.0059 13.9308 11.2093 14.0181C11.4126 14.1055 11.5965 14.2324 11.7502 14.3916L20.0002 22.6416L28.2502 14.3916C28.5646 14.088 28.9856 13.92 29.4226 13.9238C29.8596 13.9276 30.2776 14.1029 30.5866 14.4119C30.8956 14.7209 31.0709 15.139 31.0747 15.576C31.0785 16.013 30.9105 16.434 30.6069 16.7483L21.1786 26.1766Z" fill="#4A43CB"/>
</g>
<defs>
<clipPath id="clip0_1999_8597">
<rect width="40" height="40" fill="white"/>
</clipPath>
</defs>
</svg>
