<svg width="40" height="40" viewBox="0 0 40 40" fill="none" xmlns="http://www.w3.org/2000/svg">
<g clip-path="url(#clip0_1999_8588)">
<path fill-rule="evenodd" clip-rule="evenodd" d="M18.8214 13.8234C19.134 13.5109 19.5578 13.3354 19.9998 13.3354C20.4417 13.3354 20.8655 13.5109 21.1781 13.8234L30.6064 23.2517C30.7656 23.4055 30.8926 23.5894 30.9799 23.7927C31.0673 23.996 31.1132 24.2147 31.1152 24.436C31.1171 24.6573 31.0749 24.8768 30.9911 25.0816C30.9073 25.2865 30.7836 25.4725 30.6271 25.629C30.4706 25.7855 30.2845 25.9093 30.0797 25.9931C29.8749 26.0769 29.6554 26.119 29.4341 26.1171C29.2128 26.1152 28.9941 26.0692 28.7907 25.9819C28.5874 25.8945 28.4035 25.7676 28.2498 25.6084L19.9998 17.3584L11.7498 25.6084C11.4354 25.912 11.0144 26.08 10.5774 26.0762C10.1404 26.0724 9.7224 25.8971 9.41339 25.5881C9.10438 25.2791 8.92909 24.861 8.9253 24.424C8.9215 23.987 9.08949 23.566 9.39309 23.2517L18.8214 13.8234Z" fill="#4A43CB"/>
</g>
<defs>
<clipPath id="clip0_1999_8588">
<rect width="40" height="40" fill="white" transform="translate(40 40) rotate(-180)"/>
</clipPath>
</defs>
</svg>
