<svg width="24" height="28" viewBox="0 0 24 28" fill="none" xmlns="http://www.w3.org/2000/svg">
<path d="M23.5312 10.9531C23.7188 10.8125 24 10.9531 24 11.1875V20.75C24 22.0156 22.9688 23 21.75 23H2.25C0.984375 23 0 22.0156 0 20.75V11.1875C0 10.9531 0.234375 10.8125 0.421875 10.9531C1.5 11.7969 2.85938 12.8281 7.64062 16.2969C8.625 17 10.3125 18.5469 12 18.5469C13.6406 18.5469 15.375 17 16.3125 16.2969C21.0938 12.8281 22.4531 11.7969 23.5312 10.9531ZM12 17C10.875 17.0469 9.32812 15.6406 8.53125 15.0781C2.29688 10.5781 1.82812 10.1562 0.421875 9.03125C0.140625 8.84375 0 8.51562 0 8.14062V7.25C0 6.03125 0.984375 5 2.25 5H21.75C22.9688 5 24 6.03125 24 7.25V8.14062C24 8.51562 23.8125 8.84375 23.5312 9.03125C22.125 10.1562 21.6562 10.5781 15.4219 15.0781C14.625 15.6406 13.0781 17.0469 12 17Z" fill="#252165"/>
</svg>
