<svg width="25" height="28" viewBox="0 0 25 28" fill="none" xmlns="http://www.w3.org/2000/svg">
<path d="M24.1094 3.17188C24.625 3.3125 25 3.73438 25 4.25C25 16.2969 15.25 26 3.25 26C2.6875 26 2.26562 25.6719 2.125 25.1562L1 20.2812C0.90625 19.7656 1.14062 19.2031 1.65625 18.9688L6.90625 16.7188C7.375 16.5312 7.89062 16.6719 8.21875 17.0469L10.5625 19.9062C14.2188 18.1719 17.1719 15.1719 18.8594 11.6094L16 9.26562C15.625 8.9375 15.4844 8.42188 15.6719 7.95312L17.9219 2.70312C18.1562 2.1875 18.7188 1.90625 19.2344 2.04688L24.1094 3.17188Z" fill="#252165"/>
</svg>
